<svg text-rendering="geometricPrecision" image-rendering="optimizeQuality" shape-rendering="geometricPrecision"
    xmlns="http://www.w3.org/2000/svg" viewBox="0 0 512 499.4" xml:space="preserve">
    <path
        d="M459.1 40.3c30.6 30.6 43.5 73 39.6 116.7-.9 10.4-2.8 20.8-5.6 31.1-7.5-5.6-15.7-10.1-24.4-13.4.6-.6 1.4-1.1 2.3-1.4 1.3-6.2 2.3-12.4 2.8-18.5.6-7 .7-13.9.3-20.7l-23 23 17.6 17.6c-6.7-2.6-13.7-4.4-21-5.5l-4.3-4.3-3.5 3.4c-2.5-.2-5-.3-7.6-.3-2.6 0-5.3.1-7.9.3l11.2-11.2-17.6-17.6-24 24.1 8.8 8.8c-3.8 1.2-7.6 2.6-11.3 4.2l-5.2-5.2-24 24.1.3.3c-2.7 2.5-5.2 5.1-7.6 7.9l-.4-.4-24.1 24.1 6.5 6.5c-1.5 3.8-2.7 7.7-3.7 11.8l-10.6-10.5-24 24 17.6 17.6 14.3-14.3c-.2 2.6-.3 5.2-.3 7.9 0 2.6.1 5.1.3 7.6l-6.5 6.5 8.8 8.8c3.3 14.5 9.8 27.9 18.6 39.3-11.6 3.4-23.2 5.6-34.8 6.6-18.8 1.7-37.4.2-54.8-4.4-1.2.7-2.6 1.2-4 1.5-22.7 5-44.5 13.1-65.4 24.1-9.9 5.2-19.7 11-29.3 17.5L50.8 496.5c-3.7 3.9-10 3.8-13.8 0L2.9 462.3c-3.8-3.8-3.9-10.1 0-13.8l118.7-112.3c6.4-9.5 12.2-19.2 17.4-29.1 11-20.9 19.2-42.5 24.1-65 .3-1.5.9-2.9 1.7-4.3-4.7-17.6-6.1-36.2-4.5-55.2 3.8-43 23.9-87.3 59.4-122.7C255.1 24.5 299.5 4.4 342.4.5c43.7-3.7 86.1 9.2 116.7 39.8zm-187 271.1-13-13-6.6 6.6c5.1 2.3 14.3 5.2 19.6 6.4zm-20.7-20.7-17.6-17.6-12.2 12.2c6.3 5.7 13.1 10.6 20.5 14.7l9.3-9.3zm-25.3-25.3-17.6-17.6-9.2 9.3c4 7.4 8.9 14.2 14.6 20.6l12.2-12.3zm-25.4-25.3L188 227.3c.9 3.9 2 7.7 3.2 11.4.5 1.1 1 2.2 1.2 3.4.6 1.5 1.1 3 1.8 4.4l6.5-6.4zm-9.9-25.4 17.6 17.6 24.1-24.1-17.6-17.6-24.1 24.1zm25.4 25.4 17.6 17.6 24.1-24.1-17.7-17.6-24 24.1zm25.3 25.3 17.6 17.6 24.1-24.1-17.6-17.6-24.1 24.1zm25.4 25.3 17.6 17.6 24.1-24-17.6-17.6-24.1 24zm67 18.9L316.2 292l-22.5 22.5c6.8.4 13.8.3 20.7-.3 5.8-.5 11.6-1.4 17.4-2.6l2.1-2zM207.2 182.9l-17.6-17.6-1.3 1.3-.4.4c-1.2 6-2.2 12-2.7 17.9-.6 6.9-.7 13.6-.4 20.4l22.4-22.4zm-9.9-25.3 17.6 17.6 24.1-24.1-17.6-17.6-24.1 24.1zm25.3 25.3 17.6 17.6 24.1-24.1-17.6-17.6-24.1 24.1zm25.4 25.4 17.6 17.6 24-24.1-17.6-17.6-24 24.1zm25.3 25.3 17.6 17.6 24-24.1-17.6-17.6-24 24.1zm-59.7-107.8-7.3-7.3c-4.9 8.8-9.1 17.8-12.3 26.9l19.6-19.6zm-1.4-16.9 9.2 9.2 24-24.1-12-12c-7.9 8.3-15 17.3-21.2 26.9zm16.9 16.9 17.6 17.6 24-24.1-17.6-17.6-24 24.1zm25.3 25.3 17.6 17.6 24-24.1-17.6-17.6-24 24.1zm25.4 25.4 17.6 17.6 24-24.1-17.6-17.6-24 24.1zm25.3 25.3 17.6 17.6 24-24.1-17.6-17.6-24 24.1zm162.4-76.4-17.6-17.6-24.1 24.1 17.6 17.6 24.1-24.1zM442.1 100l-17.6-17.6-24.1 24.1 17.6 17.6 24.1-24.1zm-25.3-25.3-17.6-17.6-24.1 24 17.6 17.6 24.1-24zm-25.3-25.4-17.6-17.6-24.1 24.1 17.6 17.6 24.1-24.1zM385.6 28l13.6 13.6 7.1-7.1c-6.7-2.8-13.6-4.9-20.7-6.5zm21.3 21.3 17.6 17.6 12.8-12.8c-6.3-5.6-13.2-10.6-20.6-14.6l-9.8 9.8zm25.4 25.4 17.6 17.6 9.8-9.8c-4-7.3-8.9-14.2-14.7-20.5l-12.7 12.7zm25.3 25.3 13.8 13.8c-1.6-7.2-3.8-14.2-6.6-20.9-.1 0-7.2 7.1-7.2 7.1zm-47.3 31.8-17.6-17.6-24 24 17.6 17.6 24-24zM385 106.5l-17.6-17.6-24.1 24.1 17.6 17.6 24.1-24.1zm-25.3-25.4-17.6-17.6L318 87.6l17.6 17.6 24.1-24.1zm-25.4-25.3-17.6-17.6-24.1 24.1 17.6 17.6 24.1-24.1zm-9.8-25.3 17.6 17.6 22.8-22.8c-6.7-.4-13.5-.2-20.4.4-6 .5-11.9 1.4-17.9 2.7l-.4.5c0-.2-1.7 1.6-1.7 1.6zm54 133.1L360.9 146l-24 24 17.6 17.6 24-24zm-25.3-25.4-17.6-17.6-24 24 17.6 17.6 24-24zm-25.3-25.3-17.6-17.6-24 24 17.6 17.6 24-24zm-25.4-25.3L284.9 70l-24 24.1 17.6 17.6 24-24.1zm-25.3-25.3-9.3-9.3c-9.3 6.1-18.3 13.2-26.8 21.3l12.1 12.1c0-.1 24-24.1 24-24.1zm.3-15.2 7.4 7.4L305 34.3c-9.3 3.4-18.5 7.7-27.5 12.8zM158.5 334l6.9 6.9c4.3-2.5 8.7-4.9 13.1-7.2 13.4-7 27.1-13 41.2-17.9-7-4.7-13.6-10.1-19.8-16.3-6.1-6.1-11.5-12.7-16.3-19.8-4.9 14.2-11 28-18.1 41.5-2.2 4.3-4.5 8.6-7 12.8zm216.9-133.7c15.4-8.1 34.5-13.7 54.9-13.7 19.4 0 39.1 5.3 54.6 13.5 2.7 1.4 3.8 4.9 2.4 7.8-1.4 2.9-4.7 4-7.5 2.5-14-7.4-32-12.3-49.6-12.3-18.5 0-35.9 5.1-49.9 12.5-2.7 1.4-6.1.3-7.5-2.5-1.3-2.9-.2-6.4 2.6-7.8zm9.6 17.6c13.4-6.5 30.6-10 45.2-10 14.6 0 31.4 3.5 44.8 10 14.9 7.2 27.4 17.8 36 30.2 1.8 2.6 1.2 6.2-1.3 8.1-2.5 1.9-6 1.3-7.8-1.3-7.3-10.6-18.3-19.9-31.6-26.4-11.8-5.7-26.9-8.9-40.1-8.9-13.2 0-28.8 3.2-40.5 8.9-12.8 6.2-24.3 16.2-31.4 26.7-1.8 2.6-5.3 3.2-7.7 1.3-2.5-1.9-3.1-5.5-1.3-8.1 8.3-12.2 21.3-23.5 35.7-30.5zm44.5 11c28.6-.3 53.6 15.1 66.2 37.1 6.6 11.6 9 23.2 9 33.1 0 16.9-14.8 27.4-28.1 27.4-6.7 0-13.7-1.9-19.3-6.3-5.8-4.6-9.6-11.6-9.9-20.9-.2-5.6-2.6-9.3-6-11.7-3.5-2.6-8.1-3.8-11.9-3.8-10.3 0-17.4 7.9-17.4 15.4 0 6.3 1.9 15.1 4.4 20.9 2.5 5.9 7.1 12.8 11.5 16.9l.1.1.1.1c7.2 7.2 16.3 13.6 29.5 16.7 3 .7 4.9 3.8 4.2 6.9-.7 3.1-3.7 5.1-6.6 4.4-15.6-3.7-26.3-11.3-34.7-19.6-5.7-5.4-11.1-13.6-14.1-20.8-3.1-7.2-5.3-17.6-5.3-25.6 0-15 13.3-27 28.5-27 5.7 0 12.6 1.8 18.3 6 5.9 4.3 10.4 11.2 10.7 20.8.2 5.9 2.4 9.7 5.5 12.1 3.2 2.6 7.8 3.9 12.6 3.9 8.8 0 17-7 17-15.8 0-8-1.9-17.6-7.4-27.2-10.6-18.4-31.8-31.7-56.6-31.5-21.5.2-44.4 10.8-56 31.2-5 8.7-7.5 18.7-7.2 29.1.4 14.3 2.4 20.3 6.1 30.3 1.1 3-.4 6.3-3.2 7.5-2.9 1.1-6.1-.4-7.2-3.4-3.9-10.7-6.3-18-6.8-34.1-.4-12.6 2.7-24.7 8.7-35.3 13.9-24.7 40.9-36.7 65.3-36.9zm-51.2 69.2c0-26.7 24.7-47.6 51.3-47.6 26.5 0 52.2 19 52.2 49.3 0 3.2-2.5 5.8-5.6 5.8s-5.6-2.6-5.6-5.8c0-22.2-18.9-37.7-41.1-37.7-22 0-40.2 17.2-40.2 36.1v.2c-.2 10.5 1.4 20.6 6.7 31.3 5.4 11 11.8 18.4 17.7 23.8 2.3 2.1 2.5 5.8.5 8.2-2 2.4-5.5 2.6-7.8.5-6.7-6.2-14.2-14.8-20.3-27.3-6.1-12.7-8-24.7-7.8-36.8zm51.3-4.8c3.1 0 5.6 2.6 5.6 5.8 0 6.2 1.6 12.2 4.8 17.8 3 5.4 6.9 9.4 12.3 12.8 7.8 4.5 13.2 6 21.4 5.8 3.2 0 7-.3 10-.9 3-.5 5.9 1.6 6.4 4.7s-1.5 6.1-4.5 6.7c-3.7.7-8.1 1-11.7 1-10.4.3-17.7-1.9-27.1-7.2l-.1-.1-.1-.1c-6.8-4.3-12.2-9.5-16.3-16.9-4-7.2-6.3-15.1-6.3-23.6 0-3.2 2.5-5.8 5.6-5.8z"
        fill="#ff5e24" />
</svg>